<?xml version="1.0" encoding="utf-8"?>
<!-- Svg Vector Icons : http://www.onlinewebfonts.com/icon -->
<!DOCTYPE svg PUBLIC "-//W3C//DTD SVG 1.1//EN" "http://www.w3.org/Graphics/SVG/1.1/DTD/svg11.dtd">
<svg version="1.1" xmlns="http://www.w3.org/2000/svg" xmlns:xlink="http://www.w3.org/1999/xlink" x="0px" y="0px" viewBox="0 0 1000 1000" enable-background="new 0 0 1000 1000" xml:space="preserve">
<metadata> Svg Vector Icons : http://www.onlinewebfonts.com/icon </metadata>
<g><g transform="translate(0.000000,460.000000) scale(0.100000,-0.100000)"><path d="M155.5,3946.4l-55.5-55.5V249.7v-3641.2l55.5-55.5l55.5-55.5h2538.5c1395.6,0,2538.5,5.7,2538.5,15.3c0,7.7-17.2,74.7-38.3,151.2c-65.1,245-82.3,432.6-70.8,758.1c7.7,245,21.1,352.3,59.4,507.3c191.4,760,683.4,1370.7,1386,1724.9c323.5,162.7,654.7,245,1052.9,264.2L7949-70v84.2v82.3l647.1-3.8l645.2-5.7l9.6-310.1l9.6-312l158.9-124.4l157-124.4v2337.5v2337.5l-55.5,55.5l-55.5,55.5H4838.1H211L155.5,3946.4z M1727.2,2939.4v-737h-650.9H425.4v737v737h650.9h650.9V2939.4z M9250.7,2939.4v-737h-650.9H7949v737v737h650.9h650.9V2939.4z M1727.2,1149.5V422h-650.9H425.4v727.5v727.5h650.9h650.9V1149.5z M9250.7,1149.5V422h-650.9H7949v727.5v727.5h650.9h650.9V1149.5z M5173.1,958c1007-639.4,1008.9-641.3,957.2-763.8c-21-51.7-453.7-336.9-1740.2-1144.8c-181.9-114.9-247-126.3-317.8-53.6l-47.9,45.9v1208v1208l47.9,45.9C4164.2,1597.4,4170,1595.5,5173.1,958z M1727.2-640.5v-737h-650.9H425.4v737v737h650.9h650.9V-640.5z M1727.2-2440v-737h-650.9H425.4v737v737h650.9h650.9V-2440z"/><path d="M7451.2-586.9c-151.3-24.9-426.9-111-564.7-176.1C6048-1155.4,5557.9-2036.1,5670.8-2943.5c137.8-1093.1,1119.9-1918.2,2211.1-1855c541.8,30.6,985.9,225.9,1374.5,605c631.7,614.5,815.5,1521.9,474.8,2339.4c-260.4,627.9-874.9,1121.8-1552.6,1250.1C8033.2-575.4,7577.6-565.8,7451.2-586.9z M8136.6-929.5c999.3-206.8,1623.4-1190.8,1382.2-2186.2c-151.2-624.1-679.6-1154.4-1301.8-1305.6C7227.2-4660.7,6268.1-4071,6021.2-3066c-47.9,195.3-44,580,9.6,796.4c168.5,675.8,700.7,1194.6,1374.5,1340.1C7585.2-891.3,7952.8-891.3,8136.6-929.5z"/><path d="M7665.6-1593.8c-40.2-42.1-42.1-63.2-46-482.4l-5.7-440.3l-442.2-5.7l-442.2-3.8l-44-47.9c-61.3-65.1-61.3-166.6-3.8-225.9c42.1-40.2,57.4-42.1,492-47.9l449.9-5.7V-3290c0-492,3.8-509.2,135.9-530.3c55.5-9.6,78.5-1.9,124.4,36.4l55.5,47.9l5.7,442.2l5.7,442.2h415.4c451.8,0,492,7.7,536,103.4c32.5,63.2,17.2,132.1-38.3,183.8c-40.2,36.4-67,38.3-476.7,38.3h-436.5l-5.7,438.4c-5.7,434.5-5.7,440.3-51.7,488.2C7832.2-1534.5,7725-1530.7,7665.6-1593.8z"/></g></g>
</svg>